<svg width="32" height="32" viewBox="0 0 32 32" fill="none" xmlns="http://www.w3.org/2000/svg">
<path d="M5.63032 10.1497C4.12232 11.2057 3.75632 13.2837 4.81232 14.7917L6.93632 17.8257C7.99232 19.3337 10.0703 19.6997 11.5783 18.6437L14.8203 16.3737C15.1963 16.1097 15.2883 15.5897 15.0243 15.2137L10.0323 8.08373C9.76832 7.70773 9.24832 7.61573 8.87232 7.87973L5.63032 10.1497Z" fill="#4489F3"/>
<path d="M20.0184 12.7341C21.5264 11.6781 21.8924 9.60005 20.8364 8.09205L18.7124 5.05805C17.6564 3.55005 15.5784 3.18405 14.0704 4.24005L10.8284 6.51005C10.4524 6.77405 10.3604 7.29405 10.6244 7.67005L15.6164 14.8001C15.8804 15.1761 16.4004 15.2681 16.7764 15.0041L20.0184 12.7341Z" fill="#4489F3"/>
<path d="M11.982 19.222C10.474 20.278 10.108 22.356 11.164 23.864L13.288 26.898C14.344 28.406 16.422 28.772 17.93 27.716L21.172 25.446C21.548 25.182 21.64 24.662 21.376 24.286L16.384 17.156C16.12 16.78 15.6 16.688 15.224 16.952L11.982 19.222Z" fill="#4489F3"/>
<path d="M26.3699 21.8058C27.8779 20.7498 28.2439 18.6718 27.1879 17.1638L25.0639 14.1298C24.0079 12.6218 21.9299 12.2558 20.4219 13.3118L17.1799 15.5818C16.8039 15.8458 16.7119 16.3658 16.9759 16.7418L21.9679 23.8718C22.2319 24.2478 22.7519 24.3398 23.1279 24.0758L26.3699 21.8058Z" fill="#4489F3"/>
</svg>
