<svg width="184" height="49" viewBox="0 0 184 49" fill="none" xmlns="http://www.w3.org/2000/svg">
<g clip-path="url(#clip0_561_772)">
<path d="M24.3712 0C10.901 0 -0.000152035 10.8317 -0.000152035 24.163C-0.069586 37.4943 10.6232 48.4649 23.8851 48.6038C37.7025 48.7426 48.6731 37.9109 48.6731 24.3019C48.6731 10.8317 37.8414 0 24.3712 0ZM39.7855 7.70717C38.9523 7.84604 9.9289 7.84604 8.81796 7.70717C18.1915 -1.04151 32.2172 0.138868 39.7855 7.70717ZM9.23457 9.37358H39.6466C40.4104 9.37358 40.6882 9.44302 40.2715 10.2762C39.1606 12.5675 38.1885 14.9283 37.147 17.2891C36.9387 17.7751 36.661 17.9834 36.1055 17.9834C34.3002 17.9834 32.5644 17.914 30.7591 17.9834C30.0648 17.9834 29.9259 17.7751 29.9953 17.1502C30.0648 16.1781 29.9953 15.206 29.9953 14.234C29.9953 13.4702 29.7176 13.123 28.8844 13.123H19.7191C18.9553 13.123 18.6082 13.4702 18.6776 14.3034V17.4279C18.6776 17.8445 18.5387 18.0528 18.0527 18.0528H12.4285C12.0814 18.0528 11.8731 17.914 11.6648 17.5668L8.05419 9.44302H9.23457V9.37358ZM40.4798 14.3034C40.341 15.4143 40.341 16.5253 40.1327 17.5668C39.9938 18.1917 39.3689 17.914 39.0217 17.8445C38.3968 17.7751 38.8829 17.4279 38.9523 17.2196C39.3689 16.1781 39.8549 15.206 40.2715 14.1645C40.341 14.3034 40.4104 14.3034 40.4798 14.3034ZM19.858 24.3713H28.8844C29.7176 24.3713 30.0648 24.0242 29.9953 23.1909V20.2747C29.9953 19.7887 30.0648 19.5109 30.6897 19.5109C32.2866 19.5804 33.8836 19.5109 35.4806 19.5109C36.1055 19.5109 36.1055 19.7192 35.8972 20.2053L30.2731 32.7728C30.0648 33.2589 29.8565 33.3977 29.301 33.1894C26.1084 32.0783 22.634 32.0783 19.4414 33.1894C19.0248 33.3283 18.8165 33.3283 18.6082 32.9117L12.8451 19.8581V19.5109H18.1915C18.6776 19.5109 18.747 19.7887 18.747 20.2053V23.1909C18.6776 24.0242 18.9553 24.3713 19.858 24.3713ZM22.8436 19.5109H27.704C28.3289 19.5109 28.4678 19.7192 28.4678 20.2747C28.5372 22.7743 28.5372 22.7743 25.9682 22.7743H24.3017H20.8995C20.4134 22.7743 20.2746 22.6355 20.2746 22.1494C20.1357 19.5109 20.1357 19.5109 22.8436 19.5109ZM22.7742 14.6506H27.6346C28.19 14.6506 28.3983 14.7894 28.3983 15.4143C28.4678 17.9834 28.4678 17.9834 25.9682 17.9834H24.3017H20.9689C20.4829 17.9834 20.2746 17.8445 20.2051 17.2891C20.2051 14.6506 20.2051 14.6506 22.7742 14.6506ZM10.1372 17.7751C8.67909 18.0528 8.67909 18.0528 8.60966 16.7336L8.40136 14.4423L8.60966 14.234C9.0957 15.4143 9.58174 16.5947 10.1372 17.7751ZM6.2489 10.554L6.80438 15.2755L7.01268 17.4279C7.08211 17.8445 6.94324 17.9834 6.45721 17.9834H2.49947C3.26324 15.2755 4.51306 12.9147 6.2489 10.554ZM9.16513 41.1743C4.92966 37.3555 2.49947 32.634 1.7357 27.0098C1.45796 24.8574 1.59683 22.7049 1.87457 20.483C2.01343 19.6498 2.29117 19.4415 3.05494 19.5109C4.09645 19.5804 5.13796 19.5804 6.17947 19.5109C7.08211 19.4415 7.29041 19.7887 7.35985 20.5525C7.56815 22.9826 7.84589 25.4823 8.12362 27.9125L9.304 39.5079V40.2717C9.304 40.6189 9.44287 40.966 9.16513 41.1743ZM9.99834 30.2732L9.02626 20.483C9.02626 20.2053 8.67909 19.5804 9.23457 19.5109C9.85947 19.5109 10.7621 19.0249 11.1787 19.997L14.3032 27.0098L17.0806 33.3283C17.2195 33.606 17.5666 33.9532 17.0112 34.2309C14.581 35.5502 12.6368 37.4249 11.0398 40.0634C10.6232 36.6611 10.2761 33.4672 9.99834 30.2732ZM11.8731 43.3268C11.5259 43.1185 11.4565 42.9102 11.6648 42.563C12.8451 39.7162 14.7893 37.4943 17.4972 35.8974C17.8444 35.6891 18.0527 35.6891 18.261 36.1057L23.1214 47.0762C18.8859 46.7291 15.2059 45.4792 11.8731 43.3268ZM19.6497 35.3419C19.5108 34.9947 19.5802 34.8559 19.9274 34.717C22.9131 33.7449 25.8293 33.7449 28.8149 34.717C29.0927 34.7864 29.2315 34.9253 29.0927 35.2725L24.3712 45.8264L19.6497 35.3419ZM36.8693 43.3268C33.6059 45.4792 30.0648 46.6596 26.1765 47.0068C26.0376 47.0068 25.9682 47.0068 25.6904 46.9374L28.7455 40.0634C29.301 38.7442 29.9259 37.4943 30.4814 36.1751C30.6897 35.6891 30.898 35.6196 31.3146 35.8974C33.9531 37.4943 35.8972 39.6468 37.0776 42.4936C37.2165 42.8408 37.2164 43.0491 36.8693 43.3268ZM37.7719 40.2023C36.2444 37.6332 34.3002 35.6891 31.87 34.3004C31.4534 34.0921 31.5229 33.8838 31.6617 33.5366L37.7025 20.0664C37.9108 19.5804 39.3689 19.2332 39.8549 19.5109C40.1327 19.6498 39.9938 19.9275 39.9938 20.1358L38.8134 31.2453C38.3968 34.1615 38.1191 37.0777 37.7719 40.2023ZM42.4934 10.6234C44.2293 12.9147 45.3402 15.2755 46.1734 17.914H42.2157C41.8685 17.914 41.6602 17.8445 41.7297 17.4279C42.0074 15.2755 42.2157 13.0536 42.4934 10.6234ZM42.424 19.5109C43.6044 19.5804 44.7848 19.5804 45.8957 19.5109C46.4512 19.5109 46.6595 19.6498 46.7289 20.2053C47.9787 28.3291 45.6874 35.2725 39.7855 40.966C39.6466 41.0355 39.5772 41.1743 39.23 41.3826C39.4383 39.5079 39.5772 37.8415 39.7161 36.1751L41.3825 20.3442C41.5214 19.6498 41.7297 19.5109 42.424 19.5109ZM149.005 25.0657C149.005 25.4128 149.283 25.8989 148.658 26.0377C148.172 26.1072 147.686 26.1072 147.269 25.6211L139.423 15.4143L136.576 11.8038C136.299 12.2898 136.368 12.7758 136.368 13.1925L136.438 25.3434C136.438 25.9683 136.229 26.1072 135.674 26.1072C135.118 26.1072 134.771 26.1072 134.771 25.3434V9.37358C134.771 9.09585 134.632 8.67924 135.049 8.67924C135.535 8.67924 136.021 8.47094 136.438 9.02641C137.687 10.7623 139.007 12.4287 140.326 14.0951L146.992 22.7743C147.061 22.7743 147.13 22.7743 147.2 22.7049V18.3306V9.51245C147.2 8.88755 147.269 8.60981 148.033 8.60981C148.797 8.60981 148.866 8.88755 148.866 9.51245C149.005 14.6506 149.005 19.8581 149.005 25.0657ZM89.3614 18.0528C89.9168 18.0528 90.3334 18.2611 90.6112 18.7472C91.9999 20.8302 93.5274 22.7743 94.8466 24.9268C95.541 26.0377 96.3742 26.246 97.5546 25.9683L92.0693 17.9834C93.944 17.4974 95.2632 16.6642 95.8187 14.8589C96.8602 11.5955 94.7078 8.67924 91.1666 8.60981C88.667 8.54038 86.098 8.60981 83.5983 8.60981C82.9734 8.60981 82.904 8.81811 82.904 9.37358V25.1351C82.904 25.76 82.9734 26.1072 83.7372 26.1072C84.4315 26.1072 84.5704 25.8294 84.5704 25.2045V18.886C84.5704 18.2611 84.7787 18.1223 85.3342 18.1223C86.6534 18.1223 88.0421 18.1223 89.3614 18.0528ZM85.0564 16.5253C84.6398 16.5253 84.5704 16.3864 84.5704 15.9698V10.6234C84.5704 10.0679 84.8482 10.0679 85.2648 10.0679H88.3198C89.2919 10.0679 90.3334 9.99849 91.3055 10.0679C93.2497 10.2068 94.4995 11.3872 94.4995 13.1925C94.5689 14.9283 93.458 16.1087 91.5832 16.3864C89.3614 16.7336 87.2089 16.4558 85.0564 16.5253ZM173.168 8.54038C169.835 9.37358 167.266 12.1509 166.78 15.6226C166.294 19.4415 167.197 22.7743 170.599 24.9268C173.376 26.7321 176.432 26.8709 179.417 25.3434C182.542 23.677 184 20.8996 184 17.3585C184.069 11.3177 178.862 7.08226 173.168 8.54038ZM178.376 24.0242C175.946 25.274 173.446 25.0657 171.224 23.3992C168.655 21.4551 167.891 18.7472 168.447 15.6921C169.002 12.8453 170.669 10.9011 173.515 10.1374C178.098 8.88755 182.333 12.3592 182.333 17.7751C182.333 20.2747 181.153 22.6355 178.376 24.0242ZM66.2398 25.274C69.781 27.2181 73.947 26.4543 76.7244 23.5381C79.3629 20.8302 79.8489 15.9698 77.9047 12.5675C75.8912 9.09585 71.9334 7.49887 67.9063 8.54038C64.2263 9.51245 61.7266 12.9842 61.7266 17.2196C61.7266 20.7608 63.1153 23.6075 66.2398 25.274ZM64.018 14.0257C65.6844 10.2762 70.1976 8.67924 73.7387 10.7623C76.2383 12.2204 77.3493 14.4423 77.4187 17.2891C77.4187 22.4966 72.8361 26.0377 68.1146 24.3713C64.0874 22.9826 62.2127 18.1223 64.018 14.0257ZM115.538 18.1917C115.816 13.1925 113.108 9.58189 108.386 8.74868C106.164 8.40151 103.873 8.67925 101.582 8.54038C100.818 8.47094 100.679 8.81811 100.679 9.44302C100.749 12.0121 100.679 14.6506 100.679 17.2196V25.2045C100.679 25.76 100.818 25.9683 101.443 25.9683C103.456 25.8989 105.47 25.9683 107.484 25.8989C111.858 25.6906 115.33 22.3577 115.538 18.1917ZM107.622 24.3713C106.095 24.5102 104.498 24.4408 102.97 24.5102C102.346 24.5102 102.346 24.163 102.346 23.677V17.3585V10.9011C102.346 10.3457 102.484 10.0679 103.109 10.1374C104.845 10.2068 106.512 9.99849 108.247 10.3457C111.927 11.1094 114.08 13.8868 114.01 17.7751C113.802 21.2468 111.233 24.0242 107.622 24.3713ZM131.716 25.3434C131.716 26.246 131.161 26.0377 130.675 26.0377C127.272 26.0377 123.939 25.9683 120.537 26.0377C119.704 26.0377 119.357 25.8989 119.426 24.9962C119.496 22.4272 119.426 19.8581 119.426 17.2891V9.51245C119.426 8.88755 119.496 8.60981 120.259 8.60981C123.662 8.67924 127.064 8.60981 130.466 8.60981C131.091 8.60981 131.299 8.74868 131.299 9.37358C131.299 10.1374 130.952 10.1374 130.397 10.1374H121.926C121.232 10.1374 120.954 10.2762 120.954 11.04C121.023 12.3592 121.023 13.6785 120.954 14.9977C120.954 15.6921 121.093 15.9004 121.787 15.9004C124.009 15.8309 126.231 15.9004 128.383 15.9004C128.939 15.9004 129.494 15.7615 129.425 16.6642C129.425 17.5668 128.869 17.3585 128.383 17.3585H121.648C121.023 17.3585 120.815 17.5668 120.815 18.1917C120.884 19.997 120.884 21.7328 120.815 23.5381C120.815 24.3019 121.093 24.4408 121.787 24.4408H130.536C131.369 24.4408 131.716 24.5796 131.716 25.3434ZM165.739 9.30415C165.739 9.79019 165.739 10.2068 165.044 10.1374C163.517 10.0679 161.989 10.1374 160.462 10.1374C159.767 10.1374 159.559 10.3457 159.559 11.04V25.1351C159.559 25.6906 159.559 26.1072 158.795 26.1072C158.17 26.1072 157.962 25.9683 157.962 25.274C158.032 22.8438 157.962 20.483 157.962 18.0528V11.1094C157.962 10.3457 157.823 9.99849 156.99 10.0679C155.532 10.1374 154.074 10.0679 152.616 10.1374C151.921 10.1374 151.921 9.79019 151.921 9.30415C151.921 8.74868 152.06 8.60981 152.616 8.60981H164.975C165.6 8.60981 165.739 8.74868 165.739 9.30415ZM84.501 38.0498V41.5215C84.501 41.9381 84.3621 42.1464 83.8761 42.1464C83.39 42.1464 83.39 41.8687 83.39 41.5215V39.0219C82.6263 39.4385 82.4874 40.5494 81.6542 40.48C80.9598 40.4106 80.7515 39.4385 80.0572 39.0219V41.5909C80.0572 41.9381 79.9878 42.2159 79.5017 42.2159C79.0157 42.2159 78.9463 41.9381 78.9463 41.5215V38.1192C78.9463 37.8415 78.8074 37.4249 79.224 37.286C79.5712 37.2166 79.9183 37.2166 80.1961 37.4943C80.6821 37.9804 81.0293 39.0219 81.6542 39.0219C82.1402 39.0219 82.6263 38.0498 83.0429 37.4943C83.3206 37.1472 83.7372 37.2166 84.0149 37.286C84.6398 37.4249 84.501 37.7721 84.501 38.0498ZM90.1251 39.8551C90.1251 37.7026 89.0836 36.8694 87.0006 37.286C86.3063 37.4249 85.8202 37.7026 86.1674 38.5359C87.9727 37.9109 88.7365 38.1192 88.9448 39.3691C87.695 39.0219 87.2089 39.0219 86.584 39.2302C85.8897 39.5079 85.4731 39.994 85.4731 40.7577C85.4731 41.5215 85.8897 42.0075 86.6534 42.2853C87.1395 42.4242 87.6949 42.4936 88.181 42.2853C88.7365 42.0075 89.2225 41.7992 89.778 42.2853C89.9863 42.4936 90.4029 42.4242 90.6806 42.2159C90.8195 42.0075 90.8889 41.5909 90.6806 41.5215C89.8474 41.1049 90.1251 40.4106 90.1251 39.8551ZM87.7644 41.3826C87.2089 41.3826 86.6534 41.2438 86.7229 40.6883C86.7229 39.994 87.3478 39.994 87.9032 39.994C88.3893 39.994 89.0142 39.994 89.0142 40.6189C88.9448 41.3132 88.181 41.2438 87.7644 41.3826ZM124.009 38.397C124.078 39.4385 124.009 40.5494 124.009 41.5909C124.009 42.077 123.87 42.2159 123.384 42.2159C122.898 42.2159 122.898 41.9381 122.898 41.5909V39.0913C121.995 39.9245 121.44 40.8272 120.746 41.6604C120.398 42.0075 120.121 42.3547 119.635 42.2159C119.01 42.077 119.287 41.5215 119.287 41.1743C119.218 40.1328 119.287 39.0913 119.287 38.0498C119.287 37.5638 119.426 37.3555 119.912 37.3555C120.468 37.3555 120.398 37.7026 120.398 38.0498V40.5494L122.481 37.9804C122.829 37.5638 123.106 37.2166 123.662 37.3555C124.287 37.4943 124.009 38.0498 124.009 38.397ZM129.355 37.286C128.383 37.286 127.411 37.1472 126.439 37.4249C125.398 37.7026 124.842 39.0219 125.606 39.7162C126.439 40.48 126.022 40.8966 125.536 41.4521C125.398 41.5909 125.259 41.7992 125.12 42.077C125.884 42.3547 126.439 42.2159 126.856 41.5215C126.995 41.2438 127.272 40.8966 127.481 40.6883C127.758 40.4106 128.106 40.48 128.383 40.6189C128.8 40.7577 128.592 41.2438 128.592 41.5215C128.592 42.0075 128.661 42.2159 129.216 42.2159C129.772 42.2159 129.702 41.8687 129.702 41.5215V37.9109C129.772 37.6332 129.772 37.286 129.355 37.286ZM127.828 39.5774C127.133 39.5774 126.509 39.6468 126.509 38.9525C126.509 38.1192 127.203 38.2581 127.758 38.1887C128.244 38.1887 128.592 38.1192 128.592 38.8136C128.661 39.6468 128.244 39.6468 127.828 39.5774ZM75.2663 37.2166C73.7387 37.2166 72.4889 38.3275 72.4889 39.7857C72.4889 41.2438 73.5998 42.3547 75.1274 42.3547C76.7244 42.4242 77.8353 41.3826 77.9047 39.8551C77.9742 38.3275 76.7938 37.2166 75.2663 37.2166ZM75.2663 41.3132C74.3636 41.3826 73.6693 40.6883 73.5998 39.7857C73.5961 39.5749 73.6348 39.3656 73.7137 39.1701C73.7927 38.9746 73.9102 38.7971 74.0592 38.648C74.2083 38.499 74.3858 38.3815 74.5813 38.3026C74.7767 38.2237 74.9861 38.1849 75.1968 38.1887C76.0995 38.1887 76.7244 38.8136 76.7244 39.7162C76.7938 40.6189 76.1689 41.3132 75.2663 41.3132ZM110.678 37.2166C109.15 37.2166 108.039 38.3275 108.039 39.7857C108.039 41.2438 109.15 42.3547 110.747 42.3547C112.275 42.3547 113.455 41.2438 113.455 39.7857C113.386 38.2581 112.205 37.2166 110.678 37.2166ZM110.678 41.3132C110.274 41.3096 109.887 41.1475 109.601 40.8618C109.316 40.5761 109.154 40.1897 109.15 39.7857C109.146 39.5749 109.185 39.3656 109.264 39.1701C109.343 38.9746 109.46 38.7971 109.609 38.648C109.758 38.499 109.936 38.3815 110.131 38.3026C110.327 38.2237 110.536 38.1849 110.747 38.1887C111.151 38.1923 111.537 38.3544 111.823 38.6401C112.109 38.9258 112.271 39.3122 112.275 39.7162C112.275 40.6883 111.58 41.3132 110.678 41.3132ZM98.5961 37.2166C97.0685 37.2166 95.9576 38.3275 95.9576 39.7857C95.9576 41.3132 97.0685 42.3547 98.6655 42.3547C100.262 42.3547 101.373 41.2438 101.304 39.7857C101.304 38.2581 100.124 37.1472 98.5961 37.2166ZM98.5961 41.3132C98.1921 41.3096 97.8056 41.1475 97.5199 40.8618C97.2343 40.5761 97.0722 40.1897 97.0685 39.7857C97.0648 39.5749 97.1035 39.3656 97.1824 39.1701C97.2614 38.9746 97.3788 38.7971 97.5279 38.648C97.6769 38.499 97.8545 38.3815 98.0499 38.3026C98.2454 38.2237 98.4548 38.1849 98.6655 38.1887C99.5682 38.1887 100.193 38.8136 100.193 39.7162C100.197 39.927 100.158 40.1363 100.079 40.3318C100 40.5272 99.8828 40.7048 99.7337 40.8538C99.5847 41.0029 99.4071 41.1204 99.2116 41.1993C99.0162 41.2782 98.8068 41.317 98.5961 41.3132ZM106.928 41.5909C106.928 42.077 106.72 42.2159 106.303 42.2159C105.817 42.2159 105.817 41.9381 105.817 41.5909V38.883C105.817 38.1887 105.331 38.3275 104.984 38.3275C104.567 38.3275 104.012 38.1192 104.012 38.883C104.012 39.6468 103.942 40.3411 103.665 41.1049C103.456 41.7298 102.97 42.1464 102.346 42.2159C102.068 42.2853 101.79 42.2853 101.721 41.9381C101.721 41.7298 101.582 41.3826 101.929 41.2438C102.901 40.966 102.832 40.1328 102.832 39.4385C102.97 37.286 102.901 37.286 104.984 37.286C106.859 37.286 106.859 37.286 106.859 39.1608V39.7162C106.928 40.4106 106.928 41.0355 106.928 41.5909ZM67.0036 41.4521C67.0731 41.8687 66.8648 42.077 66.4481 42.2159C65.4066 42.563 64.1568 42.2853 63.4625 41.5909C62.6987 40.7577 62.5598 39.7857 62.9764 38.7442C63.3236 37.7721 64.3651 37.2166 65.4761 37.2166C65.8927 37.2166 66.2398 37.286 66.587 37.4249C66.9342 37.5638 66.9342 37.9109 66.8648 38.1887C66.7953 38.6053 66.5176 38.3275 66.2398 38.3275C65.8927 38.2581 65.5455 38.1887 65.1983 38.2581C64.3651 38.397 63.8791 38.9525 63.8791 39.7857C63.8791 40.6883 64.3651 41.1743 65.1983 41.3132C65.4761 41.3826 65.8232 41.3132 66.1704 41.3132C66.5176 41.2438 66.8648 40.8272 67.0036 41.4521ZM95.4715 37.7721C95.4715 38.1887 95.3327 38.397 94.9161 38.3275C94.0134 38.1887 93.8051 38.6053 93.8746 39.4385C93.944 40.0634 93.8746 40.7577 93.8746 41.3826C93.8746 41.7992 94.0134 42.2159 93.3191 42.2853C92.6248 42.2853 92.7636 41.8687 92.7636 41.4521C92.7636 40.7577 92.6942 39.994 92.7636 39.2996C92.8331 38.6053 92.6942 38.2581 91.861 38.3275C91.5138 38.397 91.0278 38.4664 91.0278 37.8415C91.0278 37.2166 91.5138 37.3555 91.861 37.3555H93.2497H94.9161C95.2632 37.286 95.4715 37.3555 95.4715 37.7721ZM72.0723 37.8415C72.0723 38.2581 71.7946 38.397 71.5168 38.3275C70.5448 38.1887 70.4059 38.6747 70.4753 39.5079C70.5448 40.2023 70.4753 40.8966 70.4753 41.6604C70.4753 42.1464 70.267 42.2853 69.8504 42.2853C69.3644 42.2853 69.3644 42.0075 69.3644 41.6604V39.2302C69.3644 38.6747 69.2949 38.3275 68.6006 38.397C68.184 38.4664 67.698 38.5359 67.7674 37.8415C67.8368 37.2166 68.3229 37.4249 68.67 37.3555H70.0587H71.5863C71.864 37.286 72.0723 37.4249 72.0723 37.8415ZM118.246 37.7721C118.246 38.7442 117.413 38.2581 116.996 38.2581C115.469 38.3275 115.677 38.1192 115.607 39.6468V41.5909C115.607 42.077 115.399 42.2159 114.982 42.2159C114.496 42.2159 114.496 41.9381 114.496 41.5909V39.7162C114.496 37.286 114.496 37.2166 116.927 37.286C117.413 37.3555 118.246 36.8694 118.246 37.7721Z" fill="#F47434"/>
</g>
<defs>
<clipPath id="clip0_561_772">
<rect width="184" height="48.6038" fill="white"/>
</clipPath>
</defs>
</svg>
