<svg width="9" height="18" viewBox="0 0 9 18" fill="none" xmlns="http://www.w3.org/2000/svg">
<path d="M0.675 18H8.325C8.69906 18 9 17.6991 9 17.325C9 16.9509 8.69906 16.65 8.325 16.65H0.675C0.300937 16.65 0 16.9509 0 17.325C0 17.6991 0.300937 18 0.675 18ZM4.02187 14.2031C4.28625 14.4675 4.71375 14.4675 4.97531 14.2031L8.80312 10.3781C9.0675 10.1137 9.0675 9.68625 8.80312 9.42469C8.53875 9.16313 8.11125 9.16031 7.84969 9.42469L5.17781 12.0966V0.675C5.17781 0.300937 4.87687 0 4.50281 0C4.12875 0 3.82781 0.300937 3.82781 0.675V12.0966L1.15594 9.42469C0.891563 9.16031 0.464062 9.16031 0.2025 9.42469C-0.0590626 9.68906 -0.0646875 10.1137 0.196875 10.3781L4.02187 14.2031Z" fill="#4489F3"/>
</svg>
