<svg width="160" height="111" viewBox="0 0 160 111" fill="none" xmlns="http://www.w3.org/2000/svg">
<mask id="mask0_561_267" style="mask-type:luminance" maskUnits="userSpaceOnUse" x="0" y="33" width="30" height="31">
<path d="M3.94048 39.9509C-0.0354391 42.7392 -1.00176 48.22 1.77918 52.1959L7.3853 60.1994C10.1736 64.1753 15.6543 65.1416 19.6303 62.3607L28.1796 56.371C29.1754 55.6776 29.4189 54.3056 28.7181 53.3097L15.5511 34.5071C14.8577 33.5112 13.4857 33.2678 12.4898 33.9686L3.94048 39.9583V39.9509Z" fill="white"/>
</mask>
<g mask="url(#mask0_561_267)">
<path d="M29.4187 33.2678H-1.00195V65.1416H29.4187V33.2678Z" fill="white"/>
<path d="M21.2045 61.252C26.0534 57.8567 26.4722 50.0887 22.1399 43.9016C17.8077 37.7146 10.3649 35.4513 5.51602 38.8465C0.667132 42.2418 0.248309 50.0098 4.58056 56.1969C8.91281 62.384 16.3556 64.6472 21.2045 61.252Z" fill="white"/>
<path d="M20.9255 60.8532C25.6009 57.5795 26.0041 50.0885 21.826 44.1217C17.648 38.1549 10.4709 35.9717 5.79557 39.2454C1.12021 42.5191 0.717037 50.0101 4.89506 55.9769C9.07309 61.9437 16.2502 64.1269 20.9255 60.8532Z" fill="white"/>
<path d="M20.6456 60.4545C25.1474 57.3022 25.535 50.0883 21.5112 44.3417C17.4873 38.5952 10.576 36.492 6.07413 39.6442C1.5723 42.7964 1.18479 50.0103 5.20859 55.7569C9.2324 61.5035 16.1438 63.6067 20.6456 60.4545Z" fill="white"/>
<path d="M20.3621 60.0496C24.6904 57.0189 25.0642 50.0847 21.1969 44.5617C17.3297 39.0387 10.6859 37.0183 6.35758 40.049C2.02929 43.0797 1.65553 50.0139 5.52277 55.5369C9.39002 61.0599 16.0338 63.0803 20.3621 60.0496Z" fill="white"/>
<path d="M20.0832 59.6508C24.2379 56.7416 24.596 50.0845 20.883 44.7818C17.17 39.479 10.7919 37.5387 6.63712 40.4479C2.48236 43.3571 2.12426 50.0142 5.83728 55.3169C9.5503 60.6197 15.9284 62.56 20.0832 59.6508Z" fill="white"/>
<path d="M19.804 59.2519C23.7852 56.4643 24.1277 50.0842 20.5689 45.0017C17.0101 39.9192 10.8976 38.0589 6.91642 40.8466C2.93519 43.6343 2.59274 50.0143 6.15154 55.0968C9.71034 60.1793 15.8227 62.0396 19.804 59.2519Z" fill="white"/>
<path d="M19.5243 58.8532C23.332 56.187 23.6588 50.084 20.2542 45.2218C16.8496 40.3595 11.0029 38.5793 7.19523 41.2455C3.38753 43.9116 3.06074 50.0146 6.46531 54.8769C9.86989 59.7391 15.7166 61.5194 19.5243 58.8532Z" fill="white"/>
<path d="M19.2408 58.4483C22.875 55.9036 23.188 50.0804 19.94 45.4418C16.692 40.8031 11.1128 39.1056 7.47868 41.6503C3.84451 44.1949 3.53148 50.0182 6.77949 54.6568C10.0275 59.2955 15.6066 60.993 19.2408 58.4483Z" fill="white"/>
<path d="M18.962 58.0495C22.426 55.624 22.7261 50.0759 19.6323 45.6575C16.5385 41.2391 11.2224 39.6235 7.7584 42.049C4.29443 44.4745 3.99434 50.0226 7.08814 54.441C10.1819 58.8594 15.4981 60.475 18.962 58.0495Z" fill="white"/>
<path d="M18.6831 57.6507C21.9735 55.3467 22.258 50.0757 19.3184 45.8776C16.3788 41.6794 11.3284 40.1439 8.03794 42.4479C4.74751 44.7519 4.46307 50.0229 7.40265 54.221C10.3422 58.4192 15.3926 59.9547 18.6831 57.6507Z" fill="white"/>
<path d="M18.4032 57.2518C21.5201 55.0694 21.7888 50.0754 19.0035 46.0975C16.2181 42.1196 11.4334 40.6641 8.31651 42.8466C5.1996 45.0291 4.93082 50.0231 7.71617 54.001C10.5015 57.9788 15.2863 59.4343 18.4032 57.2518Z" fill="white"/>
<path d="M18.1242 56.8531C21.0676 54.7921 21.3207 50.0752 18.6896 46.3175C16.0585 42.5599 11.5394 41.1845 8.59605 43.2455C5.65268 45.3064 5.39955 50.0233 8.03068 53.781C10.6618 57.5386 15.1808 58.914 18.1242 56.8531Z" fill="white"/>
<path d="M17.8407 56.4482C20.6106 54.5087 20.8499 50.0716 18.3753 46.5375C15.9008 43.0035 11.6493 41.7108 8.8795 43.6503C6.10966 45.5897 5.87029 50.0269 8.34486 53.561C10.8194 57.095 15.0709 58.3877 17.8407 56.4482Z" fill="white"/>
<path d="M17.5615 56.0494C20.1578 54.2315 20.3815 50.0714 18.0612 46.7576C15.7408 43.4438 11.7551 42.2312 9.1588 44.0491C6.56249 45.8671 6.33878 50.0272 8.65912 53.341C10.9795 56.6548 14.9652 57.8674 17.5615 56.0494Z" fill="white"/>
<path d="M17.2818 55.6507C19.7046 53.9542 19.9127 50.0712 17.7465 46.9776C15.5804 43.8841 11.8604 42.7515 9.43761 44.448C7.01483 46.1444 6.80677 50.0275 8.9729 53.121C11.139 56.2146 14.8591 57.3471 17.2818 55.6507Z" fill="white"/>
<path d="M17.0031 55.2519C19.2524 53.677 19.4448 50.071 17.4329 47.1977C15.421 44.3244 11.9666 43.2719 9.71739 44.8468C7.46815 46.4217 7.27574 50.0277 9.28764 52.901C11.2995 55.7743 14.7539 56.8269 17.0031 55.2519Z" fill="white"/>
<path d="M16.7241 54.8531C18.8032 53.3973 18.9826 50.0665 17.125 47.4134C15.2673 44.7604 12.0759 43.7898 9.99688 45.2456C7.91783 46.7013 7.73837 50.0322 9.59605 52.6852C11.4537 55.3383 14.6451 56.3089 16.7241 54.8531Z" fill="white"/>
<path d="M16.4406 54.4482C18.3461 53.114 18.5118 50.0629 16.8107 47.6334C15.1096 45.204 12.1858 44.3161 10.2803 45.6504C8.37481 46.9847 8.20911 50.0357 9.91023 52.4652C11.6113 54.8946 14.5351 55.7825 16.4406 54.4482Z" fill="white"/>
<path d="M16.1607 54.0495C17.8927 52.8367 18.0427 50.0627 16.4958 47.8535C14.9489 45.6443 12.2909 44.8365 10.5589 46.0492C8.8269 47.262 8.67686 50.036 10.2238 52.2452C11.7707 54.4544 14.4287 55.2622 16.1607 54.0495Z" fill="white"/>
<path d="M15.8818 53.6506C17.4402 52.5593 17.5746 50.0623 16.1819 48.0734C14.7892 46.0845 12.3969 45.3567 10.8384 46.448C9.27998 47.5392 9.14559 50.0362 10.5383 52.0251C11.9309 54.0141 14.3233 54.7418 15.8818 53.6506Z" fill="white"/>
<path d="M15.6026 53.2518C16.9875 52.2821 17.1062 50.0621 15.8678 48.2935C14.6293 46.5248 12.5027 45.8771 11.1177 46.8468C9.73281 47.8165 9.61407 50.0365 10.8525 51.8052C12.091 53.5739 14.2176 54.2215 15.6026 53.2518Z" fill="white"/>
<path d="M15.3191 52.847C16.5305 51.9987 16.6354 50.0585 15.5535 48.5134C14.4716 46.9683 12.6126 46.4034 11.4012 47.2516C10.1898 48.0999 10.0848 50.04 11.1667 51.5851C12.2486 53.1302 14.1077 53.6952 15.3191 52.847Z" fill="white"/>
<path d="M15.0404 52.4482C16.0782 51.7215 16.1675 50.0583 15.2399 48.7335C14.3122 47.4086 12.7188 46.9238 11.681 47.6505C10.6431 48.3772 10.5538 50.0403 11.4815 51.3652C12.4091 52.69 14.0025 53.1749 15.0404 52.4482Z" fill="white"/>
<path d="M14.7607 52.0493C15.625 51.4441 15.6987 50.058 14.9252 48.9534C14.1518 47.8488 12.8241 47.444 11.9598 48.0492C11.0954 48.6544 11.0218 50.0405 11.7952 51.1451C12.5687 52.2497 13.8964 52.6545 14.7607 52.0493Z" fill="white"/>
<path d="M14.4817 51.6506C15.1758 51.1646 15.2365 50.0536 14.6173 49.1693C13.9981 48.2849 12.9334 47.962 12.2393 48.4481C11.5451 48.9341 11.4844 50.045 12.1036 50.9294C12.7229 51.8137 13.7875 52.1366 14.4817 51.6506Z" fill="white"/>
<path d="M14.2017 51.2517C14.7223 50.8872 14.7674 50.0533 14.3024 49.3892C13.8374 48.7251 13.0384 48.4823 12.5178 48.8468C11.9972 49.2113 11.9522 50.0452 12.4172 50.7093C12.8822 51.3734 13.6812 51.6162 14.2017 51.2517Z" fill="white"/>
<path d="M13.9182 50.8468C14.2653 50.6038 14.2966 50.0497 13.9882 49.6092C13.6797 49.1687 13.1483 49.0086 12.8013 49.2516C12.4542 49.4946 12.4229 50.0488 12.7313 50.4893C13.0398 50.9298 13.5712 51.0899 13.9182 50.8468Z" fill="white"/>
<path d="M13.6395 50.4481C13.8131 50.3266 13.8287 50.0495 13.6745 49.8293C13.5203 49.609 13.2546 49.529 13.0811 49.6505C12.9075 49.772 12.8919 50.049 13.0461 50.2693C13.2003 50.4895 13.466 50.5696 13.6395 50.4481Z" fill="white"/>
</g>
<mask id="mask1_561_267" style="mask-type:luminance" maskUnits="userSpaceOnUse" x="16" y="22" width="30" height="32">
<path d="M41.8929 46.7668C45.8688 43.9785 46.8352 38.4978 44.0542 34.5218L38.4481 26.5184C35.6598 22.5424 30.1791 21.5761 26.2031 24.3571L17.6538 30.3468C16.658 31.0401 16.4146 32.4122 17.1153 33.408L30.2823 52.2106C30.9757 53.2065 32.3478 53.4499 33.3436 52.7491L41.8929 46.7594V46.7668Z" fill="white"/>
</mask>
<g mask="url(#mask1_561_267)">
<path d="M46.8357 21.576H16.415V53.4498H46.8357V21.576Z" fill="white"/>
<path d="M40.3168 47.8704C45.1657 44.4752 45.5845 36.7071 41.2523 30.5201C36.92 24.333 29.4772 22.0697 24.6283 25.4649C19.7794 28.8602 19.3606 36.6282 23.6929 42.8153C28.0251 49.0024 35.4679 51.2656 40.3168 47.8704Z" fill="white"/>
<path d="M39.9611 47.3629C44.5897 44.1219 44.9891 36.7061 40.8532 30.7994C36.7172 24.8926 29.6121 22.7316 24.9834 25.9726C20.3548 29.2136 19.9554 36.6293 24.0914 42.5361C28.2273 48.4429 35.3325 50.6039 39.9611 47.3629Z" fill="white"/>
<path d="M39.6018 46.8493C44.0102 43.7625 44.392 36.7017 40.4547 31.0786C36.5174 25.4555 29.7518 23.3994 25.3434 26.4862C20.935 29.573 20.5532 36.6338 24.4905 42.2569C28.4279 47.88 35.1934 49.9361 39.6018 46.8493Z" fill="white"/>
<path d="M39.2464 46.3417C43.4345 43.4091 43.7969 36.7006 40.0558 31.3578C36.3148 26.015 29.8869 24.0611 25.6988 26.9937C21.5106 29.9263 21.1482 36.6348 24.8893 41.9776C28.6303 47.3204 35.0582 49.2742 39.2464 46.3417Z" fill="white"/>
<path d="M38.8914 45.8342C42.8593 43.0558 43.2023 36.6996 39.6575 31.6371C36.1127 26.5747 30.0225 24.723 26.0546 27.5014C22.0867 30.2797 21.7437 36.6359 25.2885 41.6984C28.8333 46.7609 34.9235 48.6125 38.8914 45.8342Z" fill="white"/>
<path d="M38.5355 45.3265C42.2798 42.7047 42.6007 36.7027 39.2522 31.9205C35.9037 27.1384 30.1538 25.387 26.4095 28.0088C22.6652 30.6306 22.3444 36.6327 25.6929 41.4148C29.0414 46.197 34.7912 47.9483 38.5355 45.3265Z" fill="white"/>
<path d="M38.1762 44.813C41.7003 42.3455 42.0036 36.6984 38.8537 32.1999C35.7038 27.7014 30.2936 26.055 26.7695 28.5226C23.2455 30.9901 22.9422 36.6372 26.092 41.1357C29.2419 45.6342 34.6522 47.2806 38.1762 44.813Z" fill="white"/>
<path d="M37.8205 44.3054C41.1243 41.9921 41.4082 36.6973 38.4546 32.4791C35.501 28.2609 30.4284 26.7167 27.1246 29.0301C23.8208 31.3434 23.5369 36.6383 26.4905 40.8564C29.4441 45.0746 34.5167 46.6188 37.8205 44.3054Z" fill="white"/>
<path d="M37.4651 43.7978C40.5486 41.6387 40.8131 36.6961 38.0557 32.7583C35.2984 28.8204 30.5635 27.3785 27.48 29.5376C24.3964 31.6967 24.132 36.6393 26.8893 40.5771C29.6466 44.515 34.3815 45.9569 37.4651 43.7978Z" fill="white"/>
<path d="M37.1101 43.2902C39.9734 41.2853 40.2184 36.695 37.6574 33.0375C35.0964 29.3799 30.6991 28.0402 27.8358 30.0451C24.9725 32.05 24.7275 36.6403 27.2885 40.2978C29.8495 43.9554 34.2468 45.2951 37.1101 43.2902Z" fill="white"/>
<path d="M36.7501 42.7766C39.3931 40.9259 39.6206 36.6906 37.2582 33.3167C34.8958 29.9429 30.8381 28.7081 28.1951 30.5587C25.552 32.4094 25.3245 36.6447 27.6869 40.0186C30.0493 43.3925 34.1071 44.6273 36.7501 42.7766Z" fill="white"/>
<path d="M36.3951 42.2691C38.8179 40.5726 39.026 36.6896 36.8598 33.596C34.6937 30.5025 30.9737 29.3699 28.5509 31.0664C26.1281 32.7628 25.9201 36.6459 28.0862 39.7394C30.2523 42.833 33.9723 43.9655 36.3951 42.2691Z" fill="white"/>
<path d="M36.0392 41.7615C38.2417 40.2193 38.4303 36.6885 36.4605 33.8752C34.4906 31.062 31.1083 30.0317 28.9057 31.5739C26.7032 33.1161 26.5146 36.6469 28.4844 39.4601C30.4543 42.2734 33.8367 43.3037 36.0392 41.7615Z" fill="white"/>
<path d="M35.6801 41.248C37.6624 39.86 37.8335 36.6842 36.0623 34.1546C34.2911 31.625 31.2483 30.6996 29.266 32.0876C27.2837 33.4756 27.1126 36.6514 28.8838 39.181C30.6551 41.7106 33.6979 42.636 35.6801 41.248Z" fill="white"/>
<path d="M35.3242 40.7403C37.0862 39.5065 37.2379 36.6829 35.6629 34.4337C34.088 32.1844 31.3829 31.3612 29.6208 32.595C27.8588 33.8288 27.7072 36.6524 29.2821 38.9016C30.857 41.1508 33.5622 41.974 35.3242 40.7403Z" fill="white"/>
<path d="M34.9687 40.2328C36.5105 39.1532 36.6427 36.6819 35.2641 34.713C33.8854 32.7441 31.518 32.0231 29.9762 33.1027C28.4344 34.1822 28.3022 36.6535 29.6808 38.6224C31.0595 40.5913 33.427 41.3123 34.9687 40.2328Z" fill="white"/>
<path d="M34.613 39.7251C35.9346 38.7998 36.0473 36.6808 34.865 34.9922C33.6826 33.3036 31.6528 32.6848 30.3313 33.6102C29.0098 34.5355 28.897 36.6545 30.0793 38.3431C31.2617 40.0317 33.2915 40.6505 34.613 39.7251Z" fill="white"/>
<path d="M34.2538 39.2115C35.355 38.4404 35.4503 36.6764 34.4665 35.2715C33.4828 33.8665 31.7925 33.3527 30.6913 34.1238C29.59 34.8949 29.4948 36.659 30.4785 38.0639C31.4623 39.4688 33.1525 39.9827 34.2538 39.2115Z" fill="white"/>
<path d="M33.8981 38.7039C34.7791 38.087 34.8549 36.6753 34.0674 35.5506C33.28 34.426 31.9274 34.0144 31.0464 34.6313C30.1654 35.2482 30.0895 36.66 30.877 37.7846C31.6645 38.9092 33.0171 39.3208 33.8981 38.7039Z" fill="white"/>
<path d="M33.5433 38.1966C34.2041 37.7339 34.2605 36.6744 33.6693 35.8301C33.0781 34.9858 32.0632 34.6764 31.4025 35.1391C30.7417 35.6017 30.6853 36.6612 31.2765 37.5055C31.8677 38.3498 32.8826 38.6592 33.5433 38.1966Z" fill="white"/>
<path d="M33.1876 37.6889C33.6281 37.3805 33.6651 36.6733 33.2702 36.1093C32.8753 35.5453 32.1981 35.3381 31.7576 35.6466C31.3171 35.955 31.2801 36.6623 31.675 37.2263C32.0699 37.7902 32.7471 37.9974 33.1876 37.6889Z" fill="white"/>
<path d="M32.8284 37.1753C33.0486 37.0211 33.068 36.6689 32.8718 36.3885C32.6755 36.1082 32.3378 36.006 32.1176 36.1602C31.8973 36.3144 31.8779 36.6667 32.0742 36.947C32.2704 37.2273 32.6081 37.3296 32.8284 37.1753Z" fill="white"/>
</g>
<mask id="mask2_561_267" style="mask-type:luminance" maskUnits="userSpaceOnUse" x="16" y="57" width="30" height="31">
<path d="M20.6924 63.8802C16.7165 66.6685 15.7502 72.1493 18.5311 76.1252L24.1373 84.1287C26.9256 88.1046 32.4063 89.0709 36.3822 86.29L44.9316 80.3003C45.9274 79.6069 46.1708 78.2349 45.47 77.239L32.303 58.4364C31.6096 57.4406 30.2376 57.1971 29.2418 57.8979L20.6924 63.8876V63.8802Z" fill="white"/>
</mask>
<g mask="url(#mask2_561_267)">
<path d="M46.1716 57.1897H15.751V89.0635H46.1716V57.1897Z" fill="white"/>
<path d="M37.9564 85.1867C42.8053 81.7914 43.2242 74.0234 38.8919 67.8363C34.5597 61.6492 27.1169 59.386 22.268 62.7812C17.4191 66.1765 17.0003 73.9445 21.3325 80.1316C25.6648 86.3186 33.1075 88.5819 37.9564 85.1867Z" fill="white"/>
<path d="M37.6644 84.7698C42.3331 81.5007 42.7366 74.0217 38.5655 68.0648C34.3945 62.108 27.2285 59.9291 22.5598 63.1982C17.8912 66.4672 17.4877 73.9463 21.6587 79.9031C25.8298 85.8599 32.9957 88.0388 37.6644 84.7698Z" fill="white"/>
<path d="M37.377 84.3589C41.8655 81.2161 42.2516 74.0233 38.2395 68.2934C34.2274 62.5635 27.3363 60.4663 22.8478 63.6091C18.3593 66.752 17.9732 73.9448 21.9853 79.6747C25.9974 85.4046 32.8885 87.5018 37.377 84.3589Z" fill="white"/>
<path d="M37.0847 83.9419C41.393 80.9252 41.7638 74.0214 37.9129 68.5218C34.062 63.0221 27.4477 61.0093 23.1394 64.026C18.8312 67.0427 18.4604 73.9465 22.3113 79.4461C26.1622 84.9458 32.7765 86.9586 37.0847 83.9419Z" fill="white"/>
<path d="M36.793 83.525C40.921 80.6345 41.2764 74.0196 37.5868 68.7502C33.8971 63.4809 27.5596 61.5524 23.4316 64.4429C19.3035 67.3334 18.9481 73.9483 22.6377 79.2177C26.3274 84.4871 32.6649 86.4155 36.793 83.525Z" fill="white"/>
<path d="M36.5057 83.1141C40.4569 80.3475 40.7977 74.0169 37.267 68.9745C33.7362 63.932 27.6709 62.0871 23.7197 64.8538C19.7685 67.6205 19.4277 73.951 22.9584 78.9934C26.4892 84.0359 32.5545 85.8808 36.5057 83.1141Z" fill="white"/>
<path d="M36.2137 82.6972C39.9847 80.0567 40.3101 74.0152 36.9406 69.203C33.5711 64.3908 27.7826 62.6303 24.0116 65.2708C20.2406 67.9112 19.9151 73.9528 23.2847 78.765C26.6542 83.5772 32.4427 85.3377 36.2137 82.6972Z" fill="white"/>
<path d="M35.9217 82.2803C39.5125 79.766 39.8226 74.0134 36.6143 69.4315C33.406 64.8496 27.8942 63.1734 24.3034 65.6877C20.7127 68.202 20.4026 73.9546 23.6109 78.5365C26.8192 83.1185 32.3309 84.7946 35.9217 82.2803Z" fill="white"/>
<path d="M35.6333 81.8694C39.0439 79.4813 39.3367 74.0149 36.2873 69.6599C33.2379 65.3049 28.001 63.7104 24.5904 66.0985C21.1799 68.4867 20.8871 73.953 23.9365 78.308C26.9859 82.663 32.2227 84.2575 35.6333 81.8694Z" fill="white"/>
<path d="M35.3413 81.4525C38.5716 79.1905 38.8491 74.0131 35.9609 69.8884C33.0727 65.7637 28.1127 64.2536 24.8823 66.5155C21.6519 68.7774 21.3745 73.9548 24.2627 78.0796C27.1509 82.2043 32.1109 83.7144 35.3413 81.4525Z" fill="white"/>
<path d="M35.0495 81.0355C38.103 78.8974 38.3677 74.007 35.6408 70.1126C32.9138 66.2181 28.2279 64.7943 25.1744 66.9324C22.1209 69.0705 21.8561 73.9608 24.5831 77.8553C27.31 81.7497 31.996 83.1736 35.0495 81.0355Z" fill="white"/>
<path d="M34.762 80.6247C37.6353 78.6128 37.8828 74.0087 35.3147 70.3411C32.7467 66.6736 28.3356 65.3314 25.4623 67.3433C22.589 69.3552 22.3416 73.9593 24.9096 77.6269C27.4776 81.2944 31.8887 82.6366 34.762 80.6247Z" fill="white"/>
<path d="M34.4703 80.2078C37.1633 78.322 37.3954 74.0069 34.9886 70.5696C32.5818 67.1323 28.4475 65.8746 25.7544 67.7603C23.0614 69.646 22.8293 73.9611 25.2361 77.3984C27.6429 80.8357 31.7772 82.0935 34.4703 80.2078Z" fill="white"/>
<path d="M34.1782 79.7908C36.6911 78.0313 36.9078 74.0051 34.6623 70.7981C32.4167 67.5911 28.5592 66.4177 26.0463 68.1772C23.5334 69.9368 23.3167 73.963 25.5623 77.17C27.8079 80.377 31.6654 81.5504 34.1782 79.7908Z" fill="white"/>
<path d="M33.8906 79.3799C36.2232 77.7466 36.4227 74.0066 34.336 71.0265C32.2493 68.0465 28.6667 66.9547 26.334 68.5881C24.0014 70.2214 23.8019 73.9614 25.8886 76.9414C27.9753 79.9215 31.5579 81.0133 33.8906 79.3799Z" fill="white"/>
<path d="M33.5987 78.963C35.7545 77.4535 35.9413 74.0007 34.0158 71.2508C32.0904 68.501 28.7819 67.4956 26.6261 69.0051C24.4703 70.5146 24.2835 73.9674 26.209 76.7173C28.1344 79.4671 31.4429 80.4726 33.5987 78.963Z" fill="white"/>
<path d="M33.3065 78.546C35.2821 77.1627 35.4534 73.9988 33.6892 71.4792C31.925 68.9597 28.8933 68.0386 26.9177 69.4219C24.9421 70.8052 24.7708 73.9691 26.535 76.4887C28.2992 79.0083 31.3309 79.9293 33.3065 78.546Z" fill="white"/>
<path d="M33.0193 78.1352C34.8147 76.8781 34.9688 74.0004 33.3634 71.7078C31.7581 69.4151 29.0013 68.5757 27.2059 69.8329C25.4105 71.09 25.2564 73.9677 26.8618 76.2603C28.4671 78.5529 31.2239 79.3924 33.0193 78.1352Z" fill="white"/>
<path d="M32.7273 77.7183C34.3425 76.5873 34.4812 73.9986 33.0371 71.9363C31.593 69.8739 29.113 69.1188 27.4978 70.2498C25.8826 71.3808 25.7439 73.9695 27.188 76.0318C28.6321 78.0942 31.1121 78.8493 32.7273 77.7183Z" fill="white"/>
<path d="M32.435 77.3013C33.87 76.2965 33.9933 73.9967 32.7105 72.1646C31.4276 70.3325 29.2244 69.6619 27.7894 70.6666C26.3544 71.6714 26.2311 73.9712 27.514 75.8033C28.7968 77.6354 31.0001 78.306 32.435 77.3013Z" fill="white"/>
<path d="M32.147 76.8904C33.4051 76.0094 33.5139 73.994 32.3899 72.3889C31.266 70.7837 29.3349 70.1966 28.0768 71.0775C26.8187 71.9585 26.71 73.9739 27.8339 75.579C28.9579 77.1842 30.8889 77.7713 32.147 76.8904Z" fill="white"/>
<path d="M31.855 76.4735C32.9329 75.7187 33.0263 73.9923 32.0636 72.6174C31.1009 71.2425 29.4466 70.7397 28.3687 71.4945C27.2908 72.2492 27.1974 73.9757 28.1602 75.3506C29.1229 76.7255 30.7771 77.2282 31.855 76.4735Z" fill="white"/>
<path d="M31.563 76.0566C32.4607 75.428 32.5387 73.9905 31.7372 72.8459C30.9357 71.7012 29.5583 71.2829 28.6606 71.9114C27.7629 72.54 27.6849 73.9775 28.4864 75.1221C29.2879 76.2668 30.6653 76.6851 31.563 76.0566Z" fill="white"/>
<path d="M31.2758 75.6457C31.9933 75.1434 32.054 73.9921 31.4114 73.0744C30.7688 72.1567 29.6663 71.82 28.9488 72.3224C28.2313 72.8248 28.1706 73.976 28.8132 74.8937C29.4558 75.8115 30.5583 76.1481 31.2758 75.6457Z" fill="white"/>
<path d="M30.9838 75.2287C31.5211 74.8525 31.5664 73.9902 31.0851 73.3028C30.6037 72.6153 29.7779 72.363 29.2407 72.7392C28.7034 73.1154 28.658 73.9777 29.1394 74.6652C29.6208 75.3526 30.4465 75.6049 30.9838 75.2287Z" fill="white"/>
<path d="M30.6918 74.8119C31.0522 74.5595 31.0848 73.9843 30.7647 73.5271C30.4446 73.0699 29.8929 72.9038 29.5325 73.1562C29.1721 73.4086 29.1394 73.9838 29.4595 74.441C29.7797 74.8982 30.3313 75.0642 30.6918 74.8119Z" fill="white"/>
<path d="M30.4041 74.4009C30.5843 74.2747 30.5997 73.9858 30.4384 73.7555C30.2772 73.5253 30.0004 73.4409 29.8202 73.5671C29.64 73.6932 29.6246 73.9822 29.7858 74.2125C29.9471 74.4427 30.2239 74.5271 30.4041 74.4009Z" fill="white"/>
</g>
<mask id="mask3_561_267" style="mask-type:luminance" maskUnits="userSpaceOnUse" x="33" y="46" width="30" height="32">
<path d="M58.6449 70.6961C62.6208 67.9078 63.5871 62.4271 60.8062 58.4512L55.2001 50.4477C52.4117 46.4718 46.931 45.5054 42.9551 48.2864L34.4058 54.2761C33.4099 54.9695 33.1665 56.3415 33.8673 57.3373L47.0343 76.14C47.7277 77.1358 49.0997 77.3792 50.0955 76.6785L58.6449 70.6888V70.6961Z" fill="white"/>
</mask>
<g mask="url(#mask3_561_267)">
<path d="M63.5874 45.5055H33.1667V77.3793H63.5874V45.5055Z" fill="white"/>
<path d="M57.0685 71.7979C61.9174 68.4026 62.3362 60.6346 58.004 54.4475C53.6717 48.2605 46.2289 45.9972 41.38 49.3924C36.5311 52.7877 36.1123 60.5557 40.4446 66.7428C44.7768 72.9299 52.2196 75.1931 57.0685 71.7979Z" fill="white"/>
<path d="M56.7549 71.3508C61.4103 68.0911 61.8124 60.6331 57.653 54.693C53.4937 48.7528 46.348 46.5799 41.6927 49.8396C37.0373 53.0993 36.6352 60.5573 40.7946 66.4974C44.9539 72.4375 52.0996 74.6105 56.7549 71.3508Z" fill="white"/>
<path d="M56.4424 70.9036C60.9009 67.7818 61.2835 60.6358 57.2971 54.9426C53.3107 49.2494 46.4648 47.1649 42.0063 50.2867C37.5479 53.4086 37.1652 60.5546 41.1516 66.2478C45.1381 71.941 51.984 74.0255 56.4424 70.9036Z" fill="white"/>
<path d="M56.1296 70.4565C60.3945 67.4702 60.7604 60.6343 56.9469 55.188C53.1334 49.7418 46.5846 47.7476 42.3197 50.7339C38.0548 53.7202 37.6889 60.5562 41.5024 66.0024C45.3159 71.4487 51.8647 73.4428 56.1296 70.4565Z" fill="white"/>
<path d="M55.8115 70.0033C59.8828 67.1525 60.2339 60.6294 56.5956 55.4334C52.9574 50.2375 46.7075 48.3363 42.6362 51.1871C38.5649 54.0379 38.2138 60.561 41.852 65.757C45.4903 70.9529 51.7401 72.8541 55.8115 70.0033Z" fill="white"/>
<path d="M55.4989 69.5562C59.3767 66.841 59.711 60.6278 56.2457 55.6788C52.7804 50.7298 46.8276 48.919 42.9498 51.6343C39.072 54.3495 38.7377 60.5626 42.203 65.5116C45.6683 70.4606 51.6211 72.2715 55.4989 69.5562Z" fill="white"/>
<path d="M55.1853 69.1091C58.8695 66.5294 59.1872 60.6263 55.8948 55.9243C52.6023 51.2222 46.9467 49.5017 43.2624 52.0814C39.5782 54.6612 39.2606 60.5642 42.553 65.2663C45.8454 69.9683 51.5011 71.6888 55.1853 69.1091Z" fill="white"/>
<path d="M54.8725 68.6619C58.3632 66.2177 58.664 60.6247 55.5446 56.1696C52.4251 51.7145 47.0665 50.0843 43.5758 52.5285C40.0851 54.9727 39.7842 60.5657 42.9037 65.0208C46.0232 69.4759 51.3818 71.1061 54.8725 68.6619Z" fill="white"/>
<path d="M54.5592 68.2148C57.8563 65.9061 58.1404 60.6232 55.1939 56.415C52.2473 52.2069 47.1858 50.667 43.8887 52.9757C40.5915 55.2843 40.3074 60.5673 43.254 64.7754C46.2005 68.9836 51.2621 70.5234 54.5592 68.2148Z" fill="white"/>
<path d="M54.2463 67.7677C57.3499 65.5945 57.6173 60.6217 54.8437 56.6605C52.07 52.6992 47.3056 51.2497 44.202 53.4229C41.0985 55.596 40.831 60.5689 43.6047 64.5301C46.3784 68.4913 51.1428 69.9408 54.2463 67.7677Z" fill="white"/>
<path d="M53.9295 67.3144C56.8395 65.2768 57.092 60.6167 54.4936 56.9058C51.8952 53.1949 47.4298 51.8384 44.5198 53.876C41.6098 55.9136 41.3572 60.5737 43.9556 64.2846C46.554 67.9956 51.0194 69.3521 53.9295 67.3144Z" fill="white"/>
<path d="M53.6157 66.8673C56.3288 64.9676 56.562 60.6194 54.1365 57.1555C51.711 53.6915 47.5453 52.4234 44.8322 54.3232C42.1191 56.2229 41.8859 60.571 44.3114 64.035C46.7369 67.499 50.9026 68.767 53.6157 66.8673Z" fill="white"/>
<path d="M53.3029 66.4201C55.8224 64.6559 56.0389 60.6178 53.7863 57.4008C51.5337 54.1837 47.6651 53.006 45.1456 54.7702C42.626 56.5344 42.4096 60.5725 44.6622 63.7895C46.9147 67.0066 50.7833 68.1843 53.3029 66.4201Z" fill="white"/>
<path d="M52.9898 65.973C55.3158 64.3443 55.5155 60.6163 53.4358 57.6462C51.3562 54.6761 47.7847 53.5887 45.4587 55.2174C43.1327 56.8461 42.933 60.5741 45.0126 63.5442C47.0923 66.5142 50.6638 67.6017 52.9898 65.973Z" fill="white"/>
<path d="M52.677 65.5259C54.8094 64.0327 54.9924 60.6147 53.0856 57.8916C51.1789 55.1685 47.9045 54.1714 45.772 55.6646C43.6396 57.1577 43.4566 60.5757 45.3634 63.2988C47.2701 66.0219 50.5445 67.019 52.677 65.5259Z" fill="white"/>
<path d="M52.3637 65.0788C54.3025 63.7211 54.4688 60.6132 52.7349 58.1371C51.0011 55.6609 48.0238 54.7541 46.0849 56.1118C44.146 57.4694 43.9798 60.5773 45.7136 63.0535C47.4474 65.5296 50.4248 66.4364 52.3637 65.0788Z" fill="white"/>
<path d="M52.0463 64.6255C53.7916 63.4035 53.943 60.6083 52.3844 58.3824C50.8258 56.1565 48.1475 55.3428 46.4022 56.5649C44.6568 57.787 44.5054 60.5821 46.064 62.808C47.6226 65.0339 50.3009 65.8476 52.0463 64.6255Z" fill="white"/>
<path d="M51.7337 64.1784C53.2855 63.0919 53.4201 60.6068 52.0345 58.6279C50.6488 56.6489 48.2675 55.9255 46.7158 57.0121C45.164 58.0987 45.0293 60.5837 46.415 62.5627C47.8006 64.5416 50.1819 65.265 51.7337 64.1784Z" fill="white"/>
<path d="M51.4201 63.7312C52.7783 62.7802 52.8963 60.6052 51.6835 58.8732C50.4708 57.1412 48.3866 56.5081 47.0284 57.4591C45.6701 58.4102 45.5522 60.5852 46.765 62.3172C47.9777 64.0492 50.0619 64.6823 51.4201 63.7312Z" fill="white"/>
<path d="M51.1066 63.2841C52.2712 62.4686 52.3724 60.6036 51.3326 59.1186C50.2928 57.6336 48.5057 57.0908 47.341 57.9063C46.1763 58.7218 46.0751 60.5868 47.115 62.0718C48.1548 63.5569 49.9419 64.0996 51.1066 63.2841Z" fill="white"/>
<path d="M50.794 62.837C51.7651 62.157 51.8496 60.6021 50.9826 59.364C50.1157 58.126 48.6257 57.6735 47.6546 58.3535C46.6835 59.0335 46.599 60.5884 47.4659 61.8265C48.3328 63.0646 49.8229 63.517 50.794 62.837Z" fill="white"/>
<path d="M50.4812 62.3899C51.2554 61.8477 51.3205 60.6048 50.6265 59.6137C49.9325 58.6225 48.7422 58.2585 47.968 58.8006C47.1938 59.3428 47.1288 60.5857 47.8228 61.5768C48.5168 62.568 49.707 62.932 50.4812 62.3899Z" fill="white"/>
<path d="M50.1631 61.9367C50.7438 61.5301 50.794 60.5999 50.2752 59.859C49.7565 59.1182 48.8652 58.8472 48.2845 59.2538C47.7039 59.6604 47.6537 60.5906 48.1724 61.3314C48.6912 62.0723 49.5824 62.3432 50.1631 61.9367Z" fill="white"/>
<path d="M49.8503 61.4895C50.2374 61.2185 50.2708 60.5984 49.925 60.1045C49.5792 59.6106 48.985 59.4299 48.5979 59.701C48.2108 59.972 48.1773 60.5922 48.5232 61.0861C48.869 61.58 49.4632 61.7606 49.8503 61.4895Z" fill="white"/>
<path d="M49.5369 61.0423C49.7305 60.9068 49.7472 60.5967 49.5743 60.3498C49.4014 60.1028 49.1043 60.0125 48.9108 60.148C48.7172 60.2836 48.7005 60.5936 48.8734 60.8406C49.0463 61.0875 49.3434 61.1778 49.5369 61.0423Z" fill="white"/>
</g>
<path d="M70.8379 41.8689H76.5104V43.4327H72.4902V46.3317H76.3555V47.8955H72.4902V50.8092H76.5104V52.373H70.8379V41.8689Z" fill="white"/>
<path d="M78.3398 41.8689H79.9922V50.8092H83.5698V52.373H78.3398V41.8689Z" fill="white"/>
<path d="M88.3351 41.8689H89.7587L94.2067 52.373H92.3848L91.1308 49.3855H87.0073L85.7164 52.373H83.9092L88.3277 41.8689H88.3351ZM90.4669 47.8217L89.0432 44.0966L87.6048 47.8217H90.4595H90.4669Z" fill="white"/>
<path d="M96.3393 49.3856C96.4425 50.4478 97.0032 50.9789 98.0137 50.9789C98.5006 50.9789 98.8915 50.8314 99.194 50.5437C99.4964 50.256 99.6513 49.8798 99.6513 49.4298C99.6513 49.1274 99.5849 48.8766 99.4595 48.67C99.3341 48.4635 99.1571 48.2938 98.9432 48.1463C98.7292 47.9988 98.4784 47.8734 98.2055 47.7627C97.9326 47.6521 97.6449 47.5488 97.3351 47.4603C96.5311 47.1874 95.9336 46.8185 95.55 46.3538C95.1664 45.8891 94.9746 45.3137 94.9746 44.6204C94.9746 44.2073 95.0558 43.8163 95.2107 43.4622C95.3656 43.1082 95.5795 42.7984 95.8524 42.5402C96.1254 42.282 96.4425 42.0755 96.804 41.9206C97.1728 41.7657 97.5638 41.6919 97.9916 41.6919C98.4194 41.6919 98.8252 41.7657 99.194 41.9058C99.5554 42.046 99.8726 42.2451 100.146 42.5033C100.418 42.7615 100.632 43.0639 100.787 43.4254C100.942 43.7868 101.031 44.1851 101.053 44.6351H99.3341C99.3046 44.2073 99.1718 43.8753 98.9284 43.6319C98.685 43.3885 98.3678 43.2705 97.9695 43.2705C97.5711 43.2705 97.2613 43.3885 97.0179 43.6319C96.7745 43.8753 96.6491 44.1925 96.6491 44.5909C96.6491 44.7679 96.6786 44.9375 96.745 45.0777C96.804 45.2252 96.9073 45.358 97.0474 45.476C97.1876 45.5941 97.3794 45.7047 97.6154 45.8153C97.8515 45.926 98.1465 46.0366 98.5006 46.1473C99.4964 46.4719 100.212 46.8776 100.655 47.3644C101.097 47.8513 101.318 48.493 101.318 49.2749C101.318 49.7396 101.237 50.1748 101.068 50.5732C100.898 50.9789 100.669 51.3256 100.374 51.6206C100.072 51.9157 99.7251 52.1444 99.3267 52.3067C98.9284 52.4689 98.4932 52.5575 98.0211 52.5575C97.549 52.5575 97.099 52.4837 96.7007 52.3288C96.3024 52.1739 95.9557 51.96 95.6533 51.6796C95.3582 51.3993 95.1148 51.0674 94.9377 50.6764C94.7607 50.2855 94.6501 49.8577 94.6279 49.3856H96.3614H96.3393Z" fill="white"/>
<path d="M103.841 43.4328H101.739V41.869H107.581V43.4328H105.493V52.3731H103.841V43.4328Z" fill="white"/>
<path d="M108.237 47.1284C108.237 46.3613 108.385 45.6457 108.673 44.9892C108.96 44.3327 109.359 43.7574 109.853 43.2631C110.347 42.7689 110.937 42.3853 111.623 42.105C112.309 41.8247 113.032 41.6846 113.814 41.6846C114.596 41.6846 115.267 41.8247 115.924 42.1124C116.58 42.4001 117.155 42.7837 117.642 43.2779C118.129 43.7721 118.52 44.3475 118.8 45.004C119.088 45.6605 119.228 46.3686 119.228 47.1137C119.228 47.8587 119.088 48.5816 118.8 49.2455C118.52 49.9094 118.129 50.4847 117.642 50.9716C117.155 51.4584 116.58 51.8494 115.916 52.1297C115.252 52.41 114.537 52.5575 113.77 52.5575C113.003 52.5575 112.28 52.4174 111.608 52.1297C110.937 51.842 110.347 51.4584 109.853 50.9716C109.359 50.4847 108.96 49.9094 108.673 49.2455C108.385 48.5816 108.237 47.8734 108.237 47.1284ZM109.897 47.1137C109.897 47.6521 110 48.1611 110.207 48.6258C110.413 49.0979 110.686 49.5036 111.033 49.8577C111.38 50.2118 111.785 50.4847 112.257 50.6839C112.73 50.883 113.231 50.9789 113.77 50.9789C114.308 50.9789 114.795 50.883 115.26 50.6839C115.724 50.4847 116.123 50.2118 116.469 49.8725C116.816 49.5331 117.082 49.1274 117.273 48.6553C117.465 48.1833 117.561 47.6817 117.561 47.1432C117.561 46.6047 117.465 46.081 117.266 45.6089C117.067 45.1368 116.794 44.7237 116.447 44.377C116.101 44.0303 115.695 43.7574 115.215 43.5582C114.743 43.359 114.227 43.2631 113.681 43.2631C113.157 43.2631 112.671 43.3664 112.213 43.5656C111.756 43.7647 111.35 44.045 111.011 44.3917C110.672 44.7384 110.399 45.1441 110.199 45.6162C110 46.0883 109.897 46.5826 109.897 47.1137Z" fill="white"/>
<path d="M80.7008 64.2566C80.2434 65.2303 79.6017 65.9827 78.7608 66.5138C77.9198 67.0449 76.9609 67.3104 75.8692 67.3104C75.102 67.3104 74.3791 67.1703 73.7079 66.8826C73.0366 66.5949 72.4465 66.2113 71.9523 65.7245C71.458 65.2376 71.0597 64.6623 70.7794 63.9984C70.4917 63.3345 70.3516 62.6264 70.3516 61.8666C70.3516 61.1068 70.4917 60.3987 70.772 59.7422C71.0523 59.0857 71.4359 58.5103 71.9228 58.0161C72.4096 57.5218 72.985 57.1383 73.6415 56.858C74.298 56.5777 75.0061 56.4375 75.7659 56.4375C76.3191 56.4375 76.8429 56.5113 77.3445 56.6514C77.8461 56.7916 78.3108 56.9981 78.7312 57.2637C79.1517 57.5292 79.5279 57.8538 79.8598 58.2374C80.1918 58.6209 80.4647 59.0561 80.686 59.5356H78.8493C78.4731 59.0045 78.0379 58.6209 77.551 58.3775C77.0642 58.1341 76.4814 58.0161 75.8102 58.0161C75.2717 58.0161 74.7701 58.112 74.3054 58.3111C73.8406 58.5029 73.4423 58.7758 73.103 59.1152C72.7637 59.4545 72.4981 59.8602 72.3063 60.3323C72.1145 60.8044 72.0113 61.3134 72.0113 61.8592C72.0113 62.4051 72.1072 62.9067 72.3137 63.3714C72.5129 63.8435 72.7858 64.2492 73.1399 64.6033C73.4939 64.9573 73.8997 65.2303 74.3644 65.4368C74.8291 65.6433 75.3233 65.7392 75.8397 65.7392C76.4298 65.7392 76.9535 65.6286 77.4109 65.3999C77.8682 65.1713 78.3329 64.7951 78.7976 64.2639H80.7008V64.2566Z" fill="white"/>
<path d="M81.8145 61.8813C81.8145 61.1142 81.962 60.3987 82.2497 59.7422C82.5373 59.0857 82.9357 58.5103 83.4299 58.0161C83.9241 57.5218 84.5142 57.1383 85.2003 56.858C85.8863 56.5777 86.6092 56.4375 87.3911 56.4375C88.173 56.4375 88.8442 56.5776 89.5008 56.8653C90.1573 57.153 90.7326 57.5366 91.2195 58.0308C91.7063 58.525 92.0973 59.1004 92.3776 59.7569C92.6653 60.4134 92.8054 61.1216 92.8054 61.8666C92.8054 62.6116 92.6653 63.3345 92.3776 63.9984C92.0973 64.6623 91.7063 65.2376 91.2195 65.7245C90.7326 66.2113 90.1573 66.5949 89.4934 66.8826C88.8295 67.1629 88.114 67.3104 87.3468 67.3104C86.5797 67.3104 85.8568 67.1703 85.1855 66.8826C84.5142 66.5949 83.9241 66.2113 83.4299 65.7245C82.9357 65.2376 82.5373 64.6623 82.2497 63.9984C81.962 63.3345 81.8145 62.6264 81.8145 61.8813ZM83.4742 61.8666C83.4742 62.4051 83.5774 62.914 83.784 63.3788C83.9905 63.8509 84.2634 64.2566 84.6101 64.6106C84.9568 64.9647 85.3625 65.2376 85.8346 65.4368C86.3067 65.636 86.8083 65.7319 87.3468 65.7319C87.8853 65.7319 88.3721 65.636 88.8369 65.4368C89.3016 65.2376 89.6999 64.9647 90.0466 64.6254C90.3859 64.2861 90.6588 63.8804 90.8506 63.4083C91.0424 62.9362 91.1383 62.4346 91.1383 61.8961C91.1383 61.3576 91.0424 60.8339 90.8433 60.3618C90.6441 59.8897 90.3712 59.4766 90.0245 59.1299C89.6778 58.7832 89.2721 58.5103 88.7926 58.3111C88.3205 58.112 87.8042 58.0087 87.2583 58.0087C86.7346 58.0087 86.2477 58.112 85.7904 58.3185C85.333 58.525 84.9273 58.798 84.588 59.1447C84.2487 59.4914 83.9758 59.8971 83.7766 60.3692C83.5774 60.8413 83.4742 61.3355 83.4742 61.8666Z" fill="white"/>
<path d="M94.3912 56.6219H97.2754C100.042 56.6219 101.428 57.7432 101.428 59.993C101.428 61.7634 100.477 62.8477 98.5736 63.2313L101.443 67.1261H99.4072L96.0361 62.324V67.1261H94.3838V56.6219H94.3912ZM97.1205 61.8814C98.0278 61.8814 98.699 61.7338 99.1269 61.4314C99.5547 61.1364 99.7686 60.6643 99.7686 60.0151C99.7686 59.366 99.5621 58.8939 99.1416 58.6062C98.7212 58.3185 98.0499 58.1784 97.1131 58.1784H96.0435V61.874H97.1205V61.8814Z" fill="white"/>
<path d="M102.993 56.6219H105.877C108.643 56.6219 110.03 57.7432 110.03 59.993C110.03 61.7634 109.078 62.8477 107.175 63.2313L110.045 67.1261H108.009L104.638 62.324V67.1261H102.985V56.6219H102.993ZM105.722 61.8814C106.629 61.8814 107.301 61.7338 107.728 61.4314C108.156 61.1364 108.37 60.6643 108.37 60.0151C108.37 59.366 108.164 58.8939 107.743 58.6062C107.323 58.3185 106.651 58.1784 105.715 58.1784H104.645V61.874H105.722V61.8814Z" fill="white"/>
<path d="M111.594 56.6219H117.266V58.1858H113.246V61.0847H117.111V62.6485H113.246V65.5622H117.266V67.1261H111.594V56.6219Z" fill="white"/>
<path d="M128.965 64.2566C128.508 65.2303 127.866 65.9827 127.025 66.5138C126.184 67.0449 125.226 67.3104 124.134 67.3104C123.367 67.3104 122.644 67.1703 121.973 66.8826C121.301 66.5949 120.711 66.2113 120.217 65.7245C119.723 65.2376 119.324 64.6623 119.044 63.9984C118.756 63.3345 118.616 62.6264 118.616 61.8666C118.616 61.1068 118.756 60.3987 119.037 59.7422C119.317 59.0857 119.701 58.5103 120.187 58.0161C120.674 57.5218 121.25 57.1383 121.906 56.858C122.563 56.5777 123.271 56.4375 124.031 56.4375C124.584 56.4375 125.108 56.5113 125.609 56.6514C126.111 56.7916 126.575 56.9981 126.996 57.2637C127.416 57.5292 127.793 57.8538 128.124 58.2374C128.456 58.6209 128.729 59.0561 128.951 59.5356H127.114C126.738 59.0045 126.303 58.6209 125.816 58.3775C125.329 58.1341 124.746 58.0161 124.075 58.0161C123.536 58.0161 123.035 58.112 122.57 58.3111C122.105 58.5029 121.707 58.7758 121.368 59.1152C121.028 59.4545 120.763 59.8602 120.571 60.3323C120.379 60.8044 120.276 61.3134 120.276 61.8592C120.276 62.4051 120.372 62.9067 120.578 63.3714C120.778 63.8435 121.05 64.2492 121.405 64.6033C121.759 64.9573 122.164 65.2303 122.629 65.4368C123.094 65.6433 123.588 65.7392 124.104 65.7392C124.694 65.7392 125.218 65.6286 125.675 65.3999C126.133 65.1713 126.598 64.7951 127.062 64.2639H128.965V64.2566Z" fill="white"/>
<path d="M131.717 58.1858H129.614V56.6219H135.456V58.1858H133.369V67.1261H131.717V58.1858Z" fill="white"/>
<path d="M136.113 61.8813C136.113 61.1142 136.261 60.3987 136.549 59.7422C136.836 59.0857 137.235 58.5103 137.729 58.0161C138.223 57.5218 138.813 57.1383 139.499 56.858C140.185 56.5777 140.908 56.4375 141.69 56.4375C142.472 56.4375 143.143 56.5776 143.8 56.8653C144.456 57.153 145.031 57.5366 145.518 58.0308C146.005 58.525 146.396 59.1004 146.676 59.7569C146.964 60.4134 147.104 61.1216 147.104 61.8666C147.104 62.6116 146.964 63.3345 146.676 63.9984C146.396 64.6623 146.005 65.2376 145.518 65.7245C145.031 66.2113 144.456 66.5949 143.792 66.8826C143.128 67.1629 142.413 67.3104 141.646 67.3104C140.878 67.3104 140.156 67.1703 139.484 66.8826C138.813 66.5949 138.223 66.2113 137.729 65.7245C137.235 65.2376 136.836 64.6623 136.549 63.9984C136.261 63.3345 136.113 62.6264 136.113 61.8813ZM137.773 61.8666C137.773 62.4051 137.876 62.914 138.083 63.3788C138.289 63.8509 138.562 64.2566 138.909 64.6106C139.256 64.9647 139.661 65.2376 140.133 65.4368C140.606 65.636 141.107 65.7319 141.646 65.7319C142.184 65.7319 142.671 65.636 143.136 65.4368C143.6 65.2376 143.999 64.9647 144.345 64.6254C144.685 64.2861 144.958 63.8804 145.149 63.4083C145.341 62.9362 145.437 62.4346 145.437 61.8961C145.437 61.3576 145.341 60.8339 145.142 60.3618C144.943 59.8897 144.67 59.4766 144.323 59.1299C143.977 58.7832 143.571 58.5103 143.091 58.3111C142.619 58.112 142.103 58.0087 141.557 58.0087C141.033 58.0087 140.547 58.112 140.089 58.3185C139.632 58.525 139.226 58.798 138.887 59.1447C138.548 59.4914 138.275 59.8971 138.075 60.3692C137.876 60.8413 137.773 61.3355 137.773 61.8666Z" fill="white"/>
<path d="M148.69 56.6219H151.574C154.34 56.6219 155.727 57.7432 155.727 59.993C155.727 61.7634 154.775 62.8477 152.872 63.2313L155.742 67.1261H153.706L150.335 62.324V67.1261H148.682V56.6219H148.69ZM151.419 61.8814C152.326 61.8814 152.998 61.7338 153.425 61.4314C153.853 61.1364 154.067 60.6643 154.067 60.0151C154.067 59.366 153.861 58.8939 153.44 58.6062C153.02 58.3185 152.348 58.1784 151.412 58.1784H150.342V61.874H151.419V61.8814Z" fill="white"/>
</svg>
