<svg width="20" height="20" viewBox="0 0 20 20" fill="none" xmlns="http://www.w3.org/2000/svg">
<path d="M6.00461 0.937956C5.70836 0.229206 4.93586 -0.145794 4.20086 0.0529562L3.99461 0.109206C1.57211 0.769206 -0.497889 3.11671 0.105862 5.97421C1.49711 12.5367 6.66086 17.7005 13.2234 19.0917C16.0846 19.6992 18.4284 17.6255 19.0884 15.203L19.1446 14.9967C19.3471 14.258 18.9684 13.4855 18.2634 13.193L14.6146 11.6742C13.9959 11.4155 13.2796 11.5955 12.8521 12.1167L11.4046 13.8867C8.76836 12.578 6.64586 10.388 5.42711 7.6992L7.08461 6.34921C7.60586 5.92546 7.78211 5.20921 7.52711 4.58671L6.00461 0.937956Z" fill="white"/>
</svg>
