<svg width="60" height="60" viewBox="0 0 60 60" fill="none" xmlns="http://www.w3.org/2000/svg">
<path d="M10.5566 19.031C7.7291 21.011 7.04285 24.9073 9.02285 27.7348L13.0054 33.4235C14.9854 36.251 18.8816 36.9373 21.7091 34.9573L27.7879 30.701C28.4929 30.206 28.6654 29.231 28.1704 28.526L18.8104 15.1573C18.3154 14.4523 17.3404 14.2798 16.6354 14.7748L10.5566 19.031Z" fill="#1EC59E"/>
<path d="M37.5331 23.8759C40.3606 21.8959 41.0468 17.9996 39.0668 15.1721L35.0843 9.48336C33.1043 6.65586 29.2081 5.96961 26.3806 7.94961L20.3018 12.2059C19.5968 12.7009 19.4243 13.6759 19.9193 14.3809L29.2793 27.7496C29.7743 28.4546 30.7493 28.6271 31.4543 28.1321L37.5331 23.8759Z" fill="#1EC59E"/>
<path d="M22.4658 36.0408C19.6383 38.0208 18.952 41.9171 20.932 44.7446L24.9145 50.4333C26.8945 53.2608 30.7908 53.9471 33.6183 51.9671L39.697 47.7108C40.402 47.2158 40.5745 46.2408 40.0795 45.5358L30.7195 32.1671C30.2245 31.4621 29.2495 31.2896 28.5445 31.7846L22.4658 36.0408Z" fill="#1EC59E"/>
<path d="M49.4432 40.8856C52.2707 38.9056 52.957 35.0094 50.977 32.1819L46.9945 26.4931C45.0145 23.6656 41.1182 22.9794 38.2907 24.9594L32.212 29.2156C31.507 29.7106 31.3345 30.6856 31.8295 31.3906L41.1895 44.7594C41.6845 45.4644 42.6595 45.6369 43.3645 45.1419L49.4432 40.8856Z" fill="#1EC59E"/>
</svg>
