<svg width="32" height="32" viewBox="0 0 32 32" fill="none" xmlns="http://www.w3.org/2000/svg">
<path d="M5.63032 10.1502C4.12232 11.2062 3.75632 13.2842 4.81232 14.7922L6.93632 17.8262C7.99232 19.3342 10.0703 19.7002 11.5783 18.6442L14.8203 16.3742C15.1963 16.1102 15.2883 15.5902 15.0243 15.2142L10.0323 8.08422C9.76832 7.70822 9.24832 7.61622 8.87232 7.88022L5.63032 10.1502Z" fill="#1EC59E"/>
<path d="M20.0184 12.7341C21.5264 11.6781 21.8924 9.60005 20.8364 8.09205L18.7124 5.05805C17.6564 3.55005 15.5784 3.18405 14.0704 4.24005L10.8284 6.51005C10.4524 6.77405 10.3604 7.29405 10.6244 7.67005L15.6164 14.8001C15.8804 15.1761 16.4004 15.2681 16.7764 15.0041L20.0184 12.7341Z" fill="#1EC59E"/>
<path d="M11.9819 19.2215C10.4739 20.2775 10.1079 22.3555 11.1639 23.8635L13.2879 26.8975C14.3439 28.4055 16.4219 28.7715 17.9299 27.7155L21.1719 25.4455C21.5479 25.1815 21.6399 24.6615 21.3759 24.2855L16.3839 17.1555C16.1199 16.7795 15.5999 16.6875 15.2239 16.9515L11.9819 19.2215Z" fill="#1EC59E"/>
<path d="M26.3699 21.8063C27.8779 20.7503 28.2439 18.6723 27.1879 17.1643L25.0639 14.1303C24.0079 12.6223 21.9299 12.2563 20.4219 13.3123L17.1799 15.5823C16.8039 15.8463 16.7119 16.3663 16.9759 16.7423L21.9679 23.8723C22.2319 24.2483 22.7519 24.3403 23.1279 24.0763L26.3699 21.8063Z" fill="#1EC59E"/>
</svg>
