<svg width="60" height="59" viewBox="0 0 60 59" fill="none" xmlns="http://www.w3.org/2000/svg">
<path d="M15.3562 5.43189C21.9476 -1.5364 32.9369 -1.84015 39.9052 4.75128L53.9254 18.0097C60.8937 24.6011 61.1974 35.5904 54.606 42.5587L40.4366 57.5398C38.7895 59.2767 36.0393 59.3548 34.3024 57.7078L1.35477 26.5473C-0.382149 24.9002 -0.460281 22.1499 1.18682 20.413L15.3562 5.43189Z" fill="url(#paint0_linear_561_497)"/>
<path d="M15.3562 5.43189C21.9476 -1.5364 32.9369 -1.84015 39.9052 4.75128L53.9254 18.0097C60.8937 24.6011 61.1974 35.5904 54.606 42.5587L40.4366 57.5398C38.7895 59.2767 36.0393 59.3548 34.3024 57.7078L1.35477 26.5473C-0.382149 24.9002 -0.460281 22.1499 1.18682 20.413L15.3562 5.43189Z" fill="white"/>
<defs>
<linearGradient id="paint0_linear_561_497" x1="59.1524" y1="33.2957" x2="-0.214371" y2="24.5231" gradientUnits="userSpaceOnUse">
<stop stop-color="#4489F3"/>
<stop offset="1" stop-color="#1EC59E"/>
</linearGradient>
</defs>
</svg>
